<?xml version="1.0" encoding="utf-8"?>
<!-- Generator: Adobe Illustrator 19.2.0, SVG Export Plug-In . SVG Version: 6.00 Build 0)  -->
<svg version="1.1" id="Layer_1" xmlns="http://www.w3.org/2000/svg" xmlns:xlink="http://www.w3.org/1999/xlink" x="0px" y="0px"
	 viewBox="0 0 300 300" style="enable-background:new 0 0 300 300;" xml:space="preserve">
<style type="text/css">
	.st0{fill:#00AEEF;}
</style>
<g>
	<g>
		<path class="st0" d="M39.3,83.4v51.4H51v-20.2c2.2,2.4,5.4,3.8,9.5,3.8c8.5,0,16.8-6.9,16.8-18c0-11.1-8.3-17.9-16.8-17.9
			c-3.8,0-8.2,1.8-10.2,5.8v-4.9H39.3z M58.2,93.2c3.9,0,7.2,3.2,7.2,7.2s-3.2,7.2-7.2,7.2c-3.9,0-7.2-3-7.2-6.9
			C51,96.7,54.2,93.2,58.2,93.2z"/>
		<path class="st0" d="M83.8,83.4v18.1c0,10.7,4.5,17,13.7,17c3,0,8.5-1.7,9.7-6.1v5.4h11.7V83.4h-11.7v18.1c0,4.4-3.4,5.6-6.1,5.6
			c-2.4,0-5.6-1.4-5.6-6V83.4H83.8z"/>
		<path class="st0" d="M127.8,65.3v52.5h11.1v-4.9c2,4.1,6.4,5.6,10.2,5.6c8.5,0,16.8-6.8,16.8-17.9c0-11.1-8.3-18-16.8-18
			c-4.1,0-7.3,1.6-9.5,4.1V65.3H127.8z M146.7,93.4c3.9,0,7.2,3.2,7.2,7.2c0,3.9-3.2,7.2-7.2,7.2c-3.9,0-7.2-3.2-7.2-7.2
			C139.5,96.7,142.8,93.4,146.7,93.4z"/>
		<rect x="172.7" y="65.3" class="st0" width="11.7" height="52.5"/>
		<path class="st0" d="M199.2,65.3c-3.8,0-7.1,2.9-7.1,6.6c0,3.7,3.3,6.7,7.1,6.7c3.9,0,7-3,7-6.7C206.2,68.2,203.1,65.3,199.2,65.3
			z"/>
		<rect x="193.3" y="83.4" class="st0" width="11.7" height="34.4"/>
		<path class="st0" d="M250,134.8V83.4h-11.1v4.9c-2-4.1-6.4-5.8-10.2-5.8c-8.5,0-16.8,6.8-16.8,17.9c0,11.1,8.3,18,16.8,18
			c4.1,0,7.3-1.4,9.5-3.8v20.2H250z M231.1,107.5c-3.9,0-7.2-3.2-7.2-7.2s3.2-7.2,7.2-7.2c3.9,0,7.2,3.5,7.2,7.4
			C238.2,104.5,235,107.5,231.1,107.5z"/>
		<polygon class="st0" points="292.1,33.2 8,33.2 8,225.4 19.4,225.4 19.4,44.6 269.4,44.6 269.4,179.9 83.2,179.9 37.7,225.4 
			216.2,225.4 292.2,265.7 292.2,33.2 		"/>
	</g>
</g>
</svg>
